<svg xmlns="http://www.w3.org/2000/svg" xmlns:xlink="http://www.w3.org/1999/xlink" width="500" zoomAndPan="magnify" viewBox="0 0 375 374.999991" height="500" preserveAspectRatio="xMidYMid meet" version="1.0"><defs><g/><clipPath id="cac3c5b3fe"><path d="M 21.375 48.375 L 299.625 48.375 L 299.625 326.625 L 21.375 326.625 Z M 21.375 48.375 " clip-rule="nonzero"/></clipPath></defs><rect x="-37.5" width="450" fill="#ffffff" y="-37.499999" height="449.999989" fill-opacity="1"/><rect x="-37.5" width="450" fill="#004aad" y="-37.499999" height="449.999989" fill-opacity="1"/><g clip-path="url(#cac3c5b3fe)"><path fill="#ffffff" d="M 299.625 187.5 C 299.625 189.777344 299.570312 192.050781 299.457031 194.328125 C 299.34375 196.601562 299.179688 198.871094 298.953125 201.136719 C 298.730469 203.402344 298.453125 205.660156 298.117188 207.914062 C 297.785156 210.167969 297.394531 212.410156 296.953125 214.640625 C 296.507812 216.875 296.007812 219.097656 295.457031 221.304688 C 294.902344 223.511719 294.296875 225.707031 293.632812 227.886719 C 292.972656 230.066406 292.257812 232.226562 291.492188 234.371094 C 290.726562 236.511719 289.90625 238.636719 289.035156 240.742188 C 288.164062 242.84375 287.242188 244.925781 286.265625 246.984375 C 285.292969 249.042969 284.269531 251.074219 283.195312 253.082031 C 282.125 255.089844 281.003906 257.070312 279.832031 259.023438 C 278.660156 260.976562 277.441406 262.902344 276.179688 264.792969 C 274.914062 266.6875 273.601562 268.546875 272.246094 270.375 C 270.890625 272.207031 269.488281 274 268.046875 275.761719 C 266.601562 277.519531 265.113281 279.242188 263.585938 280.929688 C 262.054688 282.617188 260.484375 284.265625 258.875 285.875 C 257.265625 287.484375 255.617188 289.054688 253.929688 290.585938 C 252.242188 292.113281 250.519531 293.601562 248.761719 295.046875 C 247 296.488281 245.207031 297.890625 243.375 299.246094 C 241.546875 300.601562 239.6875 301.914062 237.792969 303.179688 C 235.902344 304.441406 233.976562 305.660156 232.023438 306.832031 C 230.070312 308 228.089844 309.125 226.082031 310.195312 C 224.074219 311.269531 222.042969 312.292969 219.984375 313.265625 C 217.925781 314.242188 215.84375 315.164062 213.742188 316.035156 C 211.636719 316.90625 209.511719 317.726562 207.371094 318.492188 C 205.226562 319.257812 203.066406 319.972656 200.886719 320.632812 C 198.707031 321.296875 196.511719 321.902344 194.304688 322.457031 C 192.097656 323.007812 189.875 323.507812 187.640625 323.953125 C 185.410156 324.394531 183.167969 324.785156 180.914062 325.117188 C 178.660156 325.453125 176.402344 325.730469 174.136719 325.953125 C 171.871094 326.179688 169.601562 326.34375 167.328125 326.457031 C 165.050781 326.570312 162.777344 326.625 160.5 326.625 C 158.222656 326.625 155.949219 326.570312 153.671875 326.457031 C 151.398438 326.34375 149.128906 326.179688 146.863281 325.953125 C 144.597656 325.730469 142.339844 325.453125 140.085938 325.117188 C 137.832031 324.785156 135.589844 324.394531 133.359375 323.953125 C 131.125 323.507812 128.902344 323.007812 126.695312 322.457031 C 124.488281 321.902344 122.292969 321.296875 120.113281 320.632812 C 117.933594 319.972656 115.773438 319.257812 113.628906 318.492188 C 111.488281 317.726562 109.363281 316.90625 107.257812 316.035156 C 105.15625 315.164062 103.074219 314.242188 101.015625 313.265625 C 98.957031 312.292969 96.925781 311.269531 94.917969 310.195312 C 92.910156 309.125 90.929688 308.003906 88.976562 306.832031 C 87.023438 305.660156 85.097656 304.441406 83.207031 303.179688 C 81.3125 301.914062 79.453125 300.601562 77.625 299.246094 C 75.792969 297.890625 74 296.488281 72.238281 295.046875 C 70.480469 293.601562 68.757812 292.113281 67.070312 290.585938 C 65.382812 289.054688 63.734375 287.484375 62.125 285.875 C 60.515625 284.265625 58.945312 282.617188 57.414062 280.929688 C 55.886719 279.242188 54.398438 277.519531 52.953125 275.761719 C 51.511719 274 50.109375 272.207031 48.753906 270.375 C 47.398438 268.546875 46.085938 266.6875 44.820312 264.792969 C 43.558594 262.902344 42.339844 260.976562 41.167969 259.023438 C 39.996094 257.070312 38.875 255.089844 37.800781 253.082031 C 36.730469 251.074219 35.707031 249.042969 34.734375 246.984375 C 33.757812 244.925781 32.835938 242.84375 31.964844 240.742188 C 31.09375 238.636719 30.273438 236.511719 29.507812 234.371094 C 28.742188 232.226562 28.027344 230.066406 27.367188 227.886719 C 26.703125 225.707031 26.097656 223.511719 25.542969 221.304688 C 24.992188 219.097656 24.492188 216.875 24.046875 214.640625 C 23.605469 212.410156 23.214844 210.167969 22.878906 207.914062 C 22.546875 205.660156 22.269531 203.402344 22.042969 201.136719 C 21.820312 198.871094 21.652344 196.601562 21.542969 194.328125 C 21.429688 192.050781 21.375 189.777344 21.375 187.5 C 21.375 185.222656 21.429688 182.949219 21.542969 180.671875 C 21.652344 178.398438 21.820312 176.128906 22.042969 173.863281 C 22.269531 171.597656 22.546875 169.339844 22.878906 167.085938 C 23.214844 164.832031 23.605469 162.589844 24.046875 160.359375 C 24.492188 158.125 24.992188 155.902344 25.542969 153.695312 C 26.097656 151.488281 26.703125 149.292969 27.367188 147.113281 C 28.027344 144.933594 28.742188 142.773438 29.507812 140.628906 C 30.273438 138.488281 31.09375 136.363281 31.964844 134.257812 C 32.835938 132.15625 33.757812 130.074219 34.734375 128.015625 C 35.707031 125.957031 36.730469 123.925781 37.800781 121.917969 C 38.875 119.910156 39.996094 117.929688 41.167969 115.976562 C 42.339844 114.023438 43.558594 112.097656 44.820312 110.207031 C 46.085938 108.3125 47.398438 106.453125 48.753906 104.625 C 50.109375 102.792969 51.511719 101 52.953125 99.238281 C 54.398438 97.480469 55.886719 95.757812 57.414062 94.070312 C 58.945312 92.382812 60.515625 90.734375 62.125 89.125 C 63.734375 87.515625 65.382812 85.945312 67.070312 84.414062 C 68.757812 82.886719 70.480469 81.398438 72.238281 79.953125 C 74 78.511719 75.792969 77.109375 77.625 75.753906 C 79.453125 74.398438 81.3125 73.085938 83.207031 71.820312 C 85.097656 70.558594 87.023438 69.339844 88.976562 68.167969 C 90.929688 66.996094 92.910156 65.875 94.917969 64.800781 C 96.925781 63.730469 98.957031 62.707031 101.015625 61.734375 C 103.074219 60.757812 105.15625 59.835938 107.257812 58.964844 C 109.363281 58.09375 111.488281 57.273438 113.628906 56.507812 C 115.773438 55.742188 117.933594 55.027344 120.113281 54.367188 C 122.292969 53.703125 124.488281 53.097656 126.695312 52.542969 C 128.902344 51.992188 131.125 51.492188 133.359375 51.046875 C 135.589844 50.605469 137.832031 50.214844 140.085938 49.878906 C 142.339844 49.546875 144.597656 49.269531 146.863281 49.042969 C 149.128906 48.820312 151.398438 48.65625 153.671875 48.542969 C 155.949219 48.429688 158.222656 48.375 160.5 48.375 C 162.777344 48.375 165.050781 48.429688 167.328125 48.542969 C 169.601562 48.65625 171.871094 48.820312 174.136719 49.042969 C 176.402344 49.269531 178.660156 49.546875 180.914062 49.878906 C 183.167969 50.214844 185.410156 50.605469 187.640625 51.046875 C 189.875 51.492188 192.097656 51.992188 194.304688 52.542969 C 196.511719 53.097656 198.707031 53.703125 200.886719 54.367188 C 203.066406 55.027344 205.226562 55.742188 207.371094 56.507812 C 209.511719 57.273438 211.636719 58.09375 213.742188 58.964844 C 215.84375 59.835938 217.925781 60.757812 219.984375 61.734375 C 222.042969 62.707031 224.074219 63.730469 226.082031 64.800781 C 228.089844 65.875 230.070312 66.996094 232.023438 68.167969 C 233.976562 69.339844 235.902344 70.558594 237.792969 71.820312 C 239.6875 73.085938 241.546875 74.398438 243.375 75.753906 C 245.207031 77.109375 247 78.511719 248.761719 79.953125 C 250.519531 81.398438 252.242188 82.886719 253.929688 84.414062 C 255.617188 85.945312 257.265625 87.515625 258.875 89.125 C 260.484375 90.734375 262.054688 92.382812 263.585938 94.070312 C 265.113281 95.757812 266.601562 97.480469 268.046875 99.238281 C 269.488281 101 270.890625 102.792969 272.246094 104.625 C 273.601562 106.453125 274.914062 108.3125 276.179688 110.207031 C 277.441406 112.097656 278.660156 114.023438 279.832031 115.976562 C 281.003906 117.929688 282.125 119.910156 283.195312 121.917969 C 284.269531 123.925781 285.292969 125.957031 286.265625 128.015625 C 287.242188 130.074219 288.164062 132.15625 289.035156 134.257812 C 289.90625 136.363281 290.726562 138.488281 291.492188 140.628906 C 292.257812 142.773438 292.972656 144.933594 293.632812 147.113281 C 294.296875 149.292969 294.902344 151.488281 295.457031 153.695312 C 296.007812 155.902344 296.507812 158.125 296.953125 160.359375 C 297.394531 162.589844 297.785156 164.832031 298.117188 167.085938 C 298.453125 169.339844 298.730469 171.597656 298.953125 173.863281 C 299.179688 176.128906 299.34375 178.398438 299.457031 180.671875 C 299.570312 182.949219 299.625 185.222656 299.625 187.5 Z M 299.625 187.5 " fill-opacity="1" fill-rule="nonzero"/></g><g fill="#004aad" fill-opacity="1"><g transform="translate(128.243696, 241.154603)"><g><path d="M 69.996094 -1.253906 L 69.996094 -19.105469 C 69.996094 -19.730469 69.371094 -20.355469 68.429688 -20.355469 L 30.222656 -20.355469 L 60.757812 -60.757812 C 66.082031 -68.117188 68.585938 -75.476562 68.585938 -82.054688 C 68.585938 -98.964844 53.398438 -111.023438 37.113281 -111.023438 C 15.347656 -111.023438 5.480469 -96.773438 5.480469 -78.921875 C 5.480469 -78.453125 6.105469 -77.828125 7.046875 -77.828125 L 23.800781 -77.828125 C 24.742188 -77.828125 25.367188 -78.453125 25.367188 -78.921875 C 25.367188 -87.222656 31.476562 -90.667969 37.113281 -90.667969 C 42.59375 -90.667969 46.820312 -86.59375 46.820312 -80.957031 C 46.820312 -77.984375 45.726562 -74.695312 43.0625 -71.09375 L 4.382812 -17.695312 L 4.382812 -1.253906 C 4.382812 -0.625 5.011719 0 5.949219 0 L 68.429688 0 C 69.371094 0 69.996094 -0.625 69.996094 -1.253906 Z M 69.996094 -1.253906 "/></g></g></g><g fill="#004aad" fill-opacity="1"><g transform="translate(204.970799, 241.154603)"><g><path d="M 30.535156 -109.613281 L 12.683594 -109.613281 C 11.746094 -109.613281 11.117188 -108.988281 11.117188 -108.363281 L 11.117188 -1.253906 C 11.117188 -0.625 11.746094 0 12.683594 0 L 30.535156 0 C 57.78125 0 94.738281 -7.984375 94.738281 -54.808594 C 94.738281 -103.507812 57.3125 -109.613281 30.535156 -109.613281 Z M 32.101562 -20.199219 L 32.101562 -89.570312 C 55.902344 -90.824219 73.597656 -80.800781 73.597656 -54.808594 C 73.597656 -20.984375 45.410156 -19.574219 32.101562 -20.199219 Z M 32.101562 -20.199219 "/></g></g></g><g fill="#000000" fill-opacity="1"><g transform="translate(308.642122, 241.154603)"><g><path d="M 13.625 -20.828125 C 7.671875 -20.828125 2.660156 -15.816406 2.660156 -9.867188 C 2.660156 -3.914062 7.671875 0.941406 13.625 0.941406 C 20.042969 0.941406 24.898438 -3.914062 24.898438 -9.867188 C 24.898438 -15.816406 20.042969 -20.828125 13.625 -20.828125 Z M 13.625 -20.828125 "/></g></g></g></svg>